<?xml version="1.0" encoding="UTF-8"?>
<svg version="1.1" xmlns="http://www.w3.org/2000/svg" width="157" height="40">
<path d="M0 0 C5.5930868 2.7965434 9.16684013 6.2657181 11.453125 12.1640625 C12.0376915 16.85211307 11.92742993 21.44931586 11.765625 26.1640625 C11.74306641 27.41574219 11.72050781 28.66742187 11.69726562 29.95703125 C11.63867278 33.02729617 11.55667902 36.09504011 11.453125 39.1640625 C7.09918596 39.28080213 2.74565289 39.35149668 -1.609375 39.4140625 C-3.45305664 39.46433594 -3.45305664 39.46433594 -5.33398438 39.515625 C-12.30363316 39.59076946 -16.90632044 39.42171736 -22.546875 35.1640625 C-22.546875 34.5040625 -22.546875 33.8440625 -22.546875 33.1640625 C-23.206875 33.1640625 -23.866875 33.1640625 -24.546875 33.1640625 C-28.61677756 26.55047084 -29.73399973 20.90120001 -28.546875 13.1640625 C-26.24067302 6.96997133 -22.06291282 3.5349745 -16.546875 0.1640625 C-11.15994122 -1.63158209 -5.4238898 -1.78023377 0 0 Z M-17.546875 12.1640625 C-20.13794784 15.57956761 -20.04975806 18.99731714 -19.546875 23.1640625 C-17.76211259 26.13645491 -15.69479445 28.59010277 -12.546875 30.1640625 C-9.99529845 30.235736 -7.47214529 30.25714692 -4.921875 30.2265625 C-4.21546875 30.22205078 -3.5090625 30.21753906 -2.78125 30.21289062 C-1.03642225 30.20110125 0.708362 30.18316574 2.453125 30.1640625 C3.48609754 20.28161676 3.48609754 20.28161676 0.515625 11.2890625 C-5.85246564 6.87038736 -11.65330282 6.84547297 -17.546875 12.1640625 Z " fill="#000000" transform="translate(145.546875,0.8359375)"/>
<path d="M0 0 C1.5778125 0.99 1.5778125 0.99 3.1875 2 C3.1875 2.66 3.1875 3.32 3.1875 4 C3.8475 4 4.5075 4 5.1875 4 C9.14316287 9.99729532 10.83420222 15.0699454 9.88671875 22.29296875 C8.15797616 29.12561802 3.70391004 32.89671207 -1.8125 37 C-6.53453246 39.36101623 -12.70543271 38.57172766 -17.8125 38 C-22.98489066 35.96876664 -27.76551677 32.36868584 -30.21484375 27.2421875 C-31.87474766 21.01483557 -32.11747705 14.26474825 -29.70703125 8.234375 C-23.13965222 -2.40020123 -11.40827061 -5.68383589 0 0 Z M-20.8125 12 C-22.42679923 15.22859847 -22.40820657 18.50993653 -21.8125 22 C-20.07647895 25.02508145 -17.97669863 27.41790069 -14.8125 29 C-9.68879602 29.60728845 -9.68879602 29.60728845 -4.98828125 27.953125 C-1.18497256 24.82207185 0.07413367 23.13366332 0.5625 18.25 C0.53808775 14.89941932 -0.05648646 13.15105468 -2.1875 10.5625 C-5.7173586 7.11668565 -7.7408652 6.60444164 -12.70703125 6.640625 C-16.42843453 7.27581814 -18.21562849 9.33979016 -20.8125 12 Z " fill="#000000" transform="translate(30.8125,2)"/>
<path d="M0 0 C2.96093734 1.70238697 5.32687054 3.64176563 7.5625 6.25 C6.26950306 9.13437779 4.90308637 11.12219421 2.5625 13.25 C0.29703484 12.15922048 -1.62397467 11.10614811 -3.625 9.5625 C-7.72379303 7.64972992 -11.14355566 7.96822557 -15.4375 9.25 C-18.23500031 11.43341487 -19.18788246 12.92510688 -19.84375 16.40625 C-20.11874898 20.53123472 -19.7505579 22.7386721 -17.5625 26.3125 C-13.19569348 29.01992005 -9.44950045 29.31813124 -4.4375 28.25 C-2.1631981 26.78433877 -1.08980073 25.45306764 0.5625 23.25 C3.40633123 24.5248209 5.70004018 25.70137078 7.5625 28.25 C7.2962735 30.83772157 6.76337651 32.03267455 4.98828125 33.953125 C-1.84075826 38.95183044 -8.15267958 39.40648516 -16.4375 38.25 C-21.57359018 36.66424317 -25.91073778 32.99992122 -28.4375 28.25 C-30.47799344 21.90503707 -31.50414121 15.38328242 -28.4375 9.25 C-21.63031833 -0.64810668 -11.56351241 -5.4683526 0 0 Z " fill="#000000" transform="translate(105.4375,1.75)"/>
<path d="M0 0 C1.09570312 0.00902344 2.19140625 0.01804688 3.3203125 0.02734375 C4.16335937 0.03894531 5.00640625 0.05054688 5.875 0.0625 C5.875 3.0325 5.875 6.0025 5.875 9.0625 C4.493125 9.124375 3.11125 9.18625 1.6875 9.25 C-2.04300611 9.65536208 -3.04657347 10.00041233 -6.125 12.4375 C-8.87293214 16.04416093 -9.26303208 18.75957866 -9.44140625 23.16796875 C-9.48330078 24.15087891 -9.52519531 25.13378906 -9.56835938 26.14648438 C-9.60767578 27.17064453 -9.64699219 28.19480469 -9.6875 29.25 C-9.73068359 30.28576172 -9.77386719 31.32152344 -9.81835938 32.38867188 C-9.92444366 34.9464819 -10.02650146 37.50438845 -10.125 40.0625 C-13.095 40.0625 -16.065 40.0625 -19.125 40.0625 C-19.21265069 36.04180575 -19.26561018 32.0213599 -19.3125 28 C-19.33763672 26.86626953 -19.36277344 25.73253906 -19.38867188 24.56445312 C-19.45381778 17.11610423 -19.34530971 11.6207828 -14.15234375 5.8828125 C-13.46269531 5.32335937 -12.77304687 4.76390625 -12.0625 4.1875 C-11.37027344 3.61257812 -10.67804687 3.03765625 -9.96484375 2.4453125 C-6.53210571 -0.13470717 -4.25642376 -0.0452811 0 0 Z " fill="#000000" transform="translate(66.125,-0.0625)"/>
</svg>
